<svg width="25" height="25" viewBox="0 0 25 25" fill="none" xmlns="http://www.w3.org/2000/svg">
<path fill-rule="evenodd" clip-rule="evenodd" d="M16.3579 3.51562H8.35791C5.59649 3.51562 3.35791 5.7542 3.35791 8.51562V16.5156C3.35791 19.277 5.59649 21.5156 8.35791 21.5156H16.3579C19.1193 21.5156 21.3579 19.277 21.3579 16.5156V8.51562C21.3579 5.7542 19.1193 3.51562 16.3579 3.51562ZM19.6079 16.5156C19.6024 18.3082 18.1505 19.7601 16.3579 19.7656H8.35791C6.56526 19.7601 5.1134 18.3082 5.10791 16.5156V8.51562C5.1134 6.72298 6.56526 5.27111 8.35791 5.26562H16.3579C18.1505 5.27111 19.6024 6.72298 19.6079 8.51562V16.5156ZM17.1079 8.76562C17.6602 8.76562 18.1079 8.31791 18.1079 7.76562C18.1079 7.21334 17.6602 6.76562 17.1079 6.76562C16.5556 6.76562 16.1079 7.21334 16.1079 7.76562C16.1079 8.31791 16.5556 8.76562 17.1079 8.76562ZM12.3579 8.01562C9.87263 8.01562 7.85791 10.0303 7.85791 12.5156C7.85791 15.0009 9.87263 17.0156 12.3579 17.0156C14.8432 17.0156 16.8579 15.0009 16.8579 12.5156C16.8606 11.3213 16.3873 10.1752 15.5428 9.3307C14.6983 8.48621 13.5522 8.01297 12.3579 8.01562ZM9.60791 12.5156C9.60791 14.0344 10.8391 15.2656 12.3579 15.2656C13.8767 15.2656 15.1079 14.0344 15.1079 12.5156C15.1079 10.9968 13.8767 9.76562 12.3579 9.76562C10.8391 9.76562 9.60791 10.9968 9.60791 12.5156Z" fill="white"/>
</svg>
