<svg width="25" height="25" viewBox="0 0 25 25" fill="none" xmlns="http://www.w3.org/2000/svg">
<path fill-rule="evenodd" clip-rule="evenodd" d="M4.85791 3.51562C4.02948 3.51562 3.35791 4.1872 3.35791 5.01562V20.0156C3.35791 20.844 4.02948 21.5156 4.85791 21.5156H19.8579C20.6863 21.5156 21.3579 20.844 21.3579 20.0156V5.01562C21.3579 4.1872 20.6863 3.51562 19.8579 3.51562H4.85791ZM8.87867 7.51834C8.8843 8.47459 8.16852 9.06382 7.31914 9.0596C6.51898 9.05538 5.82148 8.41834 5.8257 7.51975C5.82992 6.67459 6.49789 5.99538 7.36555 6.01507C8.24586 6.03476 8.8843 6.68022 8.87867 7.51834ZM12.6376 10.2774H10.1176H10.1162V18.8372H12.7796V18.6375C12.7796 18.2576 12.7793 17.8776 12.779 17.4975C12.7782 16.4837 12.7773 15.4688 12.7825 14.4553C12.7839 14.2092 12.7951 13.9533 12.8584 13.7184C13.096 12.8409 13.885 12.2742 14.7653 12.4135C15.3306 12.502 15.7046 12.8297 15.8621 13.3627C15.9592 13.6959 16.0028 14.0545 16.007 14.4019C16.0184 15.4495 16.0168 16.4971 16.0152 17.5448C16.0146 17.9146 16.014 18.2846 16.014 18.6544V18.8358H18.6859V18.6305C18.6859 18.1785 18.6857 17.7266 18.6854 17.2747C18.6849 16.1452 18.6843 15.0157 18.6873 13.8858C18.6887 13.3753 18.6339 12.8719 18.5087 12.3783C18.3217 11.6442 17.935 11.0367 17.3064 10.598C16.8606 10.2858 16.3712 10.0847 15.8242 10.0622C15.7619 10.0596 15.6991 10.0562 15.636 10.0528C15.3563 10.0377 15.072 10.0224 14.8046 10.0763C14.0396 10.2296 13.3675 10.5797 12.8598 11.197C12.8008 11.2678 12.7431 11.3397 12.657 11.447L12.6376 11.4713V10.2774ZM6.03955 18.84H8.69033V10.283H6.03955V18.84Z" fill="white"/>
</svg>
