<svg width="18" height="20" viewBox="0 0 18 20" fill="none" xmlns="http://www.w3.org/2000/svg">
<path d="M4 10.0017C4 9.44942 4.44772 9.00171 5 9.00171C5.55228 9.00171 6 9.44942 6 10.0017C6 10.554 5.55228 11.0017 5 11.0017C4.44772 11.0017 4 10.554 4 10.0017ZM18 4.00171V18.0017C18 19.1017 17.1 20.0017 16 20.0017H2C1.46957 20.0017 0.960859 19.791 0.585786 19.4159C0.210714 19.0408 0 18.5321 0 18.0017L0.00999999 4.00171C0.00999999 2.90171 0.89 2.00171 2 2.00171H3V1.00171C3 0.449424 3.44772 0.00170898 4 0.00170898C4.55228 0.00170898 5 0.449424 5 1.00171V2.00171H13V1.00171C13 0.449424 13.4477 0.00170898 14 0.00170898C14.5523 0.00170898 15 0.449424 15 1.00171V2.00171H16C17.1 2.00171 18 2.90171 18 4.00171ZM2 5.00171C2 5.55399 2.44772 6.00171 3 6.00171H15C15.5523 6.00171 16 5.55399 16 5.00171C16 4.44942 15.5523 4.00171 15 4.00171H3C2.44772 4.00171 2 4.44942 2 5.00171ZM15 18.0017C15.5523 18.0017 16 17.554 16 17.0017V9.00171C16 8.44942 15.5523 8.00171 15 8.00171H3C2.44772 8.00171 2 8.44942 2 9.00171V17.0017C2 17.554 2.44772 18.0017 3 18.0017H15ZM12 10.0017C12 10.554 12.4477 11.0017 13 11.0017C13.5523 11.0017 14 10.554 14 10.0017C14 9.44942 13.5523 9.00171 13 9.00171C12.4477 9.00171 12 9.44942 12 10.0017ZM8 10.0017C8 10.554 8.44771 11.0017 9 11.0017C9.55229 11.0017 10 10.554 10 10.0017C10 9.44942 9.55229 9.00171 9 9.00171C8.44771 9.00171 8 9.44942 8 10.0017Z" fill="white"/>
</svg>
