<svg width="18" height="22" viewBox="0 0 18 22" fill="none" xmlns="http://www.w3.org/2000/svg">
<path d="M9 12.0017C10.6569 12.0017 12 10.6586 12 9.00171C12 7.34485 10.6569 6.00171 9 6.00171C7.34315 6.00171 6 7.34485 6 9.00171C6 10.6586 7.34315 12.0017 9 12.0017Z" stroke="white" stroke-width="2" stroke-linecap="round" stroke-linejoin="round"/>
<path d="M9 1.00171C6.87827 1.00171 4.84344 1.84456 3.34315 3.34485C1.84285 4.84515 1 6.87998 1 9.00171C1 10.8937 1.402 12.1317 2.5 13.5017L7.41129 19.9242C8.21178 20.971 9.78822 20.971 10.5887 19.9242L15.5 13.5017C16.598 12.1317 17 10.8937 17 9.00171C17 6.87998 16.1571 4.84515 14.6569 3.34485C13.1566 1.84456 11.1217 1.00171 9 1.00171Z" stroke="white" stroke-width="2" stroke-linecap="round" stroke-linejoin="round"/>
</svg>
